<svg width="368" height="298" viewBox="0 0 368 298" fill="none" xmlns="http://www.w3.org/2000/svg">
<path d="M309.913 100.06C311.097 80.0073 308.879 59.8986 303.355 40.5853C303.169 39.9401 302.823 39.3526 302.348 38.8779C301.874 38.4031 301.286 38.0567 300.641 37.871C281.329 32.3466 261.221 30.1293 241.169 31.3129L225.73 15.8731C216.844 6.99019 204.795 2 192.231 2C179.667 2 167.617 6.99019 158.732 15.8731L143.289 31.3165C123.236 30.1335 103.127 32.3508 83.8138 37.8746C83.1694 38.0611 82.5828 38.4079 82.1088 38.8825C81.6347 39.3572 81.2887 39.9443 81.1031 40.5889C75.5766 59.9005 73.3604 80.0086 74.5485 100.06L59.1016 115.5C50.2196 124.386 45.23 136.435 45.23 148.999C45.23 161.563 50.2196 173.612 59.1016 182.498L74.5485 197.941C73.3606 217.991 75.5768 238.098 81.1031 257.409C81.289 258.053 81.6352 258.64 82.1091 259.115C82.5831 259.589 83.1696 259.936 83.8138 260.123C103.127 265.647 123.236 267.864 143.289 266.681L158.732 282.121C163.131 286.521 168.353 290.011 174.101 292.393C179.849 294.774 186.009 296 192.231 296C198.453 296 204.613 294.774 210.361 292.393C216.109 290.011 221.331 286.521 225.73 282.121L241.169 266.703C261.221 267.886 281.328 265.67 300.641 260.148C301.286 259.962 301.873 259.615 302.348 259.141C302.822 258.666 303.169 258.079 303.355 257.434C308.879 238.12 311.096 218.012 309.913 197.959L325.357 182.516C329.756 178.116 333.246 172.894 335.626 167.146C338.007 161.399 339.233 155.238 339.233 149.017C339.233 142.795 338.007 136.635 335.626 130.887C333.246 125.14 329.756 119.917 325.357 115.518L309.913 100.06Z" fill="#6EDBFF" stroke="white" stroke-width="2" stroke-miterlimit="10" stroke-linejoin="round"/>
<mask id="mask0_9379_6398" style="mask-type:alpha" maskUnits="userSpaceOnUse" x="44" y="1" width="296" height="296">
<path d="M309.913 100.06C311.097 80.0073 308.879 59.8986 303.355 40.5853C303.169 39.9401 302.823 39.3526 302.348 38.8779C301.874 38.4031 301.286 38.0567 300.641 37.871C281.329 32.3466 261.221 30.1293 241.169 31.3129L225.73 15.8731C216.844 6.99019 204.795 2 192.231 2C179.667 2 167.617 6.99019 158.732 15.8731L143.289 31.3165C123.236 30.1335 103.127 32.3508 83.8138 37.8746C83.1694 38.0611 82.5828 38.4079 82.1088 38.8825C81.6347 39.3572 81.2887 39.9443 81.1031 40.5889C75.5766 59.9005 73.3604 80.0086 74.5485 100.06L59.1016 115.5C50.2196 124.386 45.23 136.435 45.23 148.999C45.23 161.563 50.2196 173.612 59.1016 182.498L74.5485 197.941C73.3606 217.991 75.5768 238.098 81.1031 257.409C81.289 258.053 81.6352 258.64 82.1091 259.115C82.5831 259.589 83.1696 259.936 83.8138 260.123C103.127 265.647 123.236 267.864 143.289 266.681L158.732 282.121C163.131 286.521 168.353 290.011 174.101 292.393C179.849 294.774 186.009 296 192.231 296C198.453 296 204.613 294.774 210.361 292.393C216.109 290.011 221.331 286.521 225.73 282.121L241.169 266.703C261.221 267.886 281.328 265.67 300.641 260.148C301.286 259.962 301.873 259.615 302.348 259.141C302.822 258.666 303.169 258.079 303.355 257.434C308.879 238.12 311.096 218.012 309.913 197.959L325.357 182.516C329.756 178.116 333.246 172.894 335.626 167.146C338.007 161.399 339.233 155.238 339.233 149.017C339.233 142.795 338.007 136.635 335.626 130.887C333.246 125.14 329.756 119.917 325.357 115.518L309.913 100.06Z" fill="#FFB16E" stroke="white" stroke-width="1.2" stroke-miterlimit="10" stroke-linejoin="round"/>
</mask>
<g mask="url(#mask0_9379_6398)">
<path d="M358.613 74.0255L358.452 306.497C358.452 312.592 353.432 317.167 347.239 316.705L104.237 298.522C98.0485 298.056 93.0394 292.735 93.043 286.636L93.2007 54.8567V54.1647C93.2007 48.0691 98.2206 43.4974 104.413 43.96L347.412 62.132C349.816 62.3331 352.108 63.2377 354.002 64.733C355.896 66.2282 357.307 68.248 358.061 70.5403C358.427 71.6657 358.614 72.8419 358.613 74.0255V74.0255Z" stroke="black" stroke-width="1.2" stroke-miterlimit="10" stroke-linejoin="round"/>
<path d="M93.1973 61.6973L358.606 81.5438" stroke="black" stroke-width="1.2" stroke-miterlimit="10" stroke-linejoin="round"/>
<path d="M93.1792 85.8574L358.588 105.704" stroke="black" stroke-width="1.2" stroke-miterlimit="10" stroke-linejoin="round"/>
<path d="M93.165 110.018L358.574 129.864" stroke="black" stroke-width="1.2" stroke-miterlimit="10" stroke-linejoin="round"/>
<path d="M93.147 134.178L358.556 154.024" stroke="black" stroke-width="1.2" stroke-miterlimit="10" stroke-linejoin="round"/>
<path d="M93.1289 158.338L358.538 178.184" stroke="black" stroke-width="1.2" stroke-miterlimit="10" stroke-linejoin="round"/>
<path d="M93.1147 182.494L358.524 202.341" stroke="black" stroke-width="1.2" stroke-miterlimit="10" stroke-linejoin="round"/>
<path d="M93.0967 206.654L358.505 226.501" stroke="black" stroke-width="1.2" stroke-miterlimit="10" stroke-linejoin="round"/>
<path d="M93.0786 230.814L358.487 250.661" stroke="black" stroke-width="1.2" stroke-miterlimit="10" stroke-linejoin="round"/>
<path d="M93.0645 254.975L358.473 274.821" stroke="black" stroke-width="1.2" stroke-miterlimit="10" stroke-linejoin="round"/>
<path d="M93.0464 279.135L358.455 298.981" stroke="black" stroke-width="1.2" stroke-miterlimit="10" stroke-linejoin="round"/>
<path d="M118.913 45.0566L118.741 297.26" stroke="black" stroke-width="1.2" stroke-miterlimit="10" stroke-linejoin="round"/>
<path d="M142.823 46.8457L142.65 299.049" stroke="black" stroke-width="1.2" stroke-miterlimit="10" stroke-linejoin="round"/>
<path d="M166.735 48.6348L166.563 300.838" stroke="black" stroke-width="1.2" stroke-miterlimit="10" stroke-linejoin="round"/>
<path d="M190.644 50.4219L190.472 282.625" stroke="black" stroke-width="1.2" stroke-miterlimit="10" stroke-linejoin="round"/>
<path d="M214.556 52.2109L214.384 304.414" stroke="black" stroke-width="1.2" stroke-miterlimit="10" stroke-linejoin="round"/>
<path d="M238.466 54L238.293 306.203" stroke="black" stroke-width="1.2" stroke-miterlimit="10" stroke-linejoin="round"/>
<path d="M262.378 55.7852L262.203 307.988" stroke="black" stroke-width="1.2" stroke-miterlimit="10" stroke-linejoin="round"/>
<path d="M286.287 57.5742L286.115 309.777" stroke="black" stroke-width="1.2" stroke-miterlimit="10" stroke-linejoin="round"/>
<path d="M310.2 59.3633L310.024 311.563" stroke="black" stroke-width="1.2" stroke-miterlimit="10" stroke-linejoin="round"/>
<path d="M334.109 61.1504L333.937 313.353" stroke="black" stroke-width="1.2" stroke-miterlimit="10" stroke-linejoin="round"/>
<path d="M358.595 86.1306L93.1865 67.2841V54.1686C93.1865 48.073 98.2064 43.5013 104.399 43.9639L347.397 62.1359C352.389 62.5159 360.625 71.0888 358.595 86.1306Z" fill="black" stroke="black" stroke-width="1.2" stroke-linecap="round" stroke-linejoin="round"/>
<path d="M112.752 60.5968C114.741 59.2421 115.202 56.4508 113.78 54.3623C112.358 52.2737 109.592 51.6788 107.602 53.0335C105.612 54.3881 105.152 57.1794 106.574 59.268C107.996 61.3565 110.762 61.9515 112.752 60.5968Z" fill="#6EDBFF"/>
<path d="M125.074 61.5245C127.064 60.1698 127.524 57.3786 126.102 55.29C124.68 53.2014 121.915 52.6065 119.925 53.9612C117.935 55.3159 117.475 58.1072 118.897 60.1957C120.319 62.2843 123.085 62.8792 125.074 61.5245Z" fill="#6EDBFF"/>
<path d="M137.397 62.4503C139.386 61.0956 139.847 58.3043 138.425 56.2158C137.003 54.1272 134.237 53.5323 132.247 54.887C130.258 56.2417 129.797 59.0329 131.219 61.1215C132.641 63.2101 135.407 63.805 137.397 62.4503Z" fill="#6EDBFF"/>
<path d="M338.534 242.331L274.304 245.3C270.769 245.461 267.52 242.482 267.047 238.641L251.568 112.427C251.094 108.587 253.579 105.342 257.115 105.177L321.348 102.212C324.883 102.047 328.132 105.026 328.601 108.867L344.081 235.081C344.554 238.921 342.069 242.166 338.534 242.331Z" fill="black" stroke="black" stroke-width="1.2" stroke-miterlimit="10" stroke-linejoin="round"/>
<path d="M334.98 238.38L270.747 241.349C267.211 241.51 263.963 238.531 263.493 234.69L248.014 108.483C247.541 104.643 250.025 101.398 253.561 101.233L317.794 98.2641C321.329 98.1027 324.574 101.082 325.048 104.923L340.527 231.137C341 234.97 338.515 238.215 334.98 238.38Z" fill="white" stroke="white" stroke-width="1.2" stroke-miterlimit="10" stroke-linejoin="round"/>
<path d="M288.46 103.674L270.163 108.963L266.233 97.3064L284.53 92.0176L288.46 103.674Z" fill="black"/>
<path d="M283.566 103.438L275.996 88.9269C275.777 88.5215 275.655 88.0708 275.641 87.6104C275.626 87.1499 275.718 86.6922 275.91 86.2735C276.423 85.1978 276.961 83.7349 276.358 83.2759C275.369 82.5194 272.651 82.8708 271.887 83.0895C271.123 83.3082 268.66 84.452 268.323 85.5994C268.111 86.295 269.453 87.2166 270.539 87.8297C270.946 88.0633 271.297 88.384 271.566 88.769C271.835 89.1539 272.016 89.5935 272.095 90.0564L274.788 105.977" stroke="black" stroke-width="1.2" stroke-miterlimit="10" stroke-linejoin="round"/>
</g>
<path d="M309.913 100.06C311.097 80.0073 308.879 59.8986 303.355 40.5853C303.169 39.9401 302.823 39.3526 302.348 38.8779C301.874 38.4031 301.286 38.0567 300.641 37.871C281.329 32.3466 261.221 30.1293 241.169 31.3129L225.73 15.8731C216.844 6.99019 204.795 2 192.231 2C179.667 2 167.617 6.99019 158.732 15.8731L143.289 31.3165C123.236 30.1335 103.127 32.3508 83.8138 37.8746C83.1694 38.0611 82.5828 38.4079 82.1088 38.8825C81.6347 39.3572 81.2887 39.9443 81.1031 40.5889C75.5766 59.9005 73.3604 80.0086 74.5485 100.06L59.1016 115.5C50.2196 124.386 45.23 136.435 45.23 148.999C45.23 161.563 50.2196 173.612 59.1016 182.498L74.5485 197.941C73.3606 217.991 75.5768 238.098 81.1031 257.409C81.289 258.053 81.6352 258.64 82.1091 259.115C82.5831 259.589 83.1696 259.936 83.8138 260.123C103.127 265.647 123.236 267.864 143.289 266.681L158.732 282.121C163.131 286.521 168.353 290.011 174.101 292.393C179.849 294.774 186.009 296 192.231 296C198.453 296 204.613 294.774 210.361 292.393C216.109 290.011 221.331 286.521 225.73 282.121L241.169 266.703C261.221 267.886 281.328 265.67 300.641 260.148C301.286 259.962 301.873 259.615 302.348 259.141C302.822 258.666 303.169 258.079 303.355 257.434C308.879 238.12 311.096 218.012 309.913 197.959L325.357 182.516C329.756 178.116 333.246 172.894 335.626 167.146C338.007 161.399 339.233 155.238 339.233 149.017C339.233 142.795 338.007 136.635 335.626 130.887C333.246 125.14 329.756 119.917 325.357 115.518L309.913 100.06Z" stroke="white" stroke-width="2" stroke-miterlimit="10" stroke-linejoin="round"/>
<path d="M234.579 248.592L188.443 245.143C188.307 245.133 188.18 245.072 188.087 244.972C187.993 244.872 187.941 244.741 187.941 244.605L188.013 143.988C188.012 143.914 188.028 143.84 188.057 143.771C188.087 143.703 188.13 143.642 188.185 143.591C188.239 143.54 188.304 143.501 188.374 143.476C188.444 143.451 188.519 143.441 188.594 143.447L234.73 146.896C234.866 146.907 234.994 146.969 235.087 147.069C235.18 147.169 235.231 147.301 235.232 147.438L229.645 247.477C229.645 247.792 234.891 248.617 234.579 248.592Z" fill="black" stroke="black" stroke-width="1.2" stroke-miterlimit="10" stroke-linejoin="round"/>
<path d="M231.596 245.762L185.46 242.312C185.323 242.302 185.196 242.24 185.103 242.14C185.01 242.039 184.958 241.908 184.958 241.771L185.026 141.158C185.025 141.084 185.041 141.01 185.07 140.941C185.1 140.873 185.143 140.811 185.198 140.761C185.252 140.71 185.317 140.671 185.387 140.646C185.457 140.621 185.532 140.611 185.607 140.617L231.743 144.066C231.879 144.077 232.007 144.139 232.1 144.239C232.193 144.339 232.244 144.471 232.245 144.607L232.177 245.224C232.176 245.298 232.161 245.372 232.131 245.44C232.101 245.508 232.058 245.569 232.003 245.619C231.949 245.67 231.884 245.708 231.814 245.733C231.744 245.757 231.67 245.767 231.596 245.762V245.762Z" fill="white" stroke="black" stroke-width="1.2" stroke-miterlimit="10" stroke-linejoin="round"/>
<path d="M223.381 242.945L193.724 240.729C193.635 240.72 193.553 240.679 193.493 240.612C193.434 240.546 193.401 240.46 193.401 240.371L193.448 175.696C193.448 175.601 193.486 175.51 193.553 175.443C193.62 175.376 193.711 175.338 193.807 175.338L223.463 177.557C223.552 177.566 223.634 177.608 223.694 177.674C223.754 177.741 223.787 177.827 223.786 177.916L223.754 242.586C223.754 242.635 223.744 242.683 223.725 242.727C223.706 242.772 223.679 242.812 223.644 242.845C223.609 242.879 223.568 242.905 223.523 242.922C223.477 242.939 223.429 242.947 223.381 242.945Z" fill="white" stroke="black" stroke-width="1.2" stroke-miterlimit="10" stroke-linejoin="round"/>
<path d="M205.939 129.939L206.766 146.541L211.607 146.3L210.781 129.698L205.939 129.939Z" fill="black" stroke="black" stroke-width="1.2" stroke-miterlimit="10" stroke-linejoin="round"/>
<path d="M130.284 192.516C111.061 190.461 96.7509 197.797 87.3529 204.459C81.5657 208.565 61.8949 231.89 51.7009 238.993L51.6543 239.025C52.479 245.985 54.0352 255.322 56.8786 262.805C59.3709 269.414 62.2319 275.879 65.4483 282.167C65.7939 282.071 66.1446 281.995 66.4988 281.938C72.0171 281.088 86.2665 279.001 91.8242 277.277C98.2568 275.269 164.799 243.701 164.799 243.701V193.104C164.799 193.104 149.51 194.567 130.284 192.516Z" fill="#6EDBFF" stroke="black" stroke-width="1.2" stroke-linecap="round" stroke-linejoin="round"/>
<path d="M107.701 232.653L99.9561 254.167C99.7625 251.965 98.4573 259.133 98.9127 265.913C99.0454 267.892 100.031 273.443 100.031 273.443L109.87 268.871L112.172 231.172L107.701 232.653Z" fill="black" stroke="black" stroke-width="1.2" stroke-linecap="round" stroke-linejoin="round"/>
<path d="M51.665 239.025C45.7236 243.142 27.9998 249.205 27.9998 249.205C27.9998 249.205 27.6024 260.5 30.7787 271.723C34.7049 285.596 43.0128 292.824 43.0128 292.824C43.0128 292.824 59.0084 283.885 65.4482 282.161C62.2318 275.872 59.3708 269.407 56.8785 262.798C54.0351 255.322 52.4789 245.985 51.665 239.025Z" fill="black" stroke="black" stroke-width="1.2" stroke-linecap="round" stroke-linejoin="round"/>
<path d="M112.226 258.578C112.226 258.578 106.378 261.554 104.216 265.854C101.021 272.218 104.868 275.13 108.691 273.717C112.513 272.304 119.132 261.644 119.189 256.126C119.247 250.607 112.226 258.578 112.226 258.578Z" fill="#6EDBFF" stroke="black" stroke-width="1.2" stroke-miterlimit="10" stroke-linejoin="round"/>
<path d="M114.665 250.632C114.665 250.632 102.201 255.326 104.044 262.805C105.231 267.632 114.665 263.583 118.551 259.005C121.237 255.835 125.26 252.5 123.543 245.648C121.431 237.208 114.665 250.632 114.665 250.632Z" fill="#6EDBFF" stroke="black" stroke-width="1.2" stroke-miterlimit="10" stroke-linejoin="round"/>
<path d="M117.641 235.414C117.641 235.414 104.051 246.716 105.471 251.567C106.891 256.418 119.781 250.491 122.912 248.362C132.571 241.771 129.556 233.797 129.305 228.282C128.67 214.097 117.641 235.414 117.641 235.414Z" fill="#6EDBFF" stroke="black" stroke-width="1.2" stroke-miterlimit="10" stroke-linejoin="round"/>
<path d="M207.937 178.892L217.385 161.627L222.702 164.537C227.859 167.358 229.382 172.829 226.636 177.847C223.852 182.934 218.411 184.623 213.255 181.801L207.937 178.892ZM221.405 166.908L218.666 165.409L211.813 177.931L214.552 179.43C218.12 181.383 221.852 180.194 223.93 176.396C225.996 172.621 224.973 168.86 221.405 166.908Z" fill="#6EDBFF"/>
<path d="M189.116 168.595L205.193 154.958L208.002 156.495L205.161 177.375L202.421 175.876L203.411 169.148L196.896 165.583L191.74 170.031L189.116 168.595ZM198.995 163.77L203.806 166.403L204.928 158.612L198.995 163.77Z" fill="#6EDBFF"/>
<path d="M131.693 224.346C137.516 228.864 125.07 237.842 124.432 238.33C123.686 238.893 108.565 246.168 107.145 241.317C106.479 239.043 110.788 231.277 113.047 228.146" fill="#6EDBFF"/>
<path d="M131.693 224.346C137.516 228.864 125.07 237.842 124.432 238.33C123.686 238.893 108.565 246.168 107.145 241.317C106.479 239.043 110.788 231.277 113.047 228.146" stroke="black" stroke-width="1.2" stroke-miterlimit="10" stroke-linejoin="round"/>
<path d="M37.1827 257.402C39.0521 257.402 40.5675 255.887 40.5675 254.018C40.5675 252.148 39.0521 250.633 37.1827 250.633C35.3133 250.633 33.7979 252.148 33.7979 254.018C33.7979 255.887 35.3133 257.402 37.1827 257.402Z" fill="#6EDBFF"/>
<path d="M276.502 185.729L277.345 292.088C277.366 294.681 275.215 296.613 272.551 296.391L121.944 284.734C119.272 284.526 117.096 282.26 117.074 279.668L116.242 173.305C116.221 170.712 118.365 168.779 121.036 169.002L271.633 180.677C274.294 180.867 276.484 183.133 276.502 185.729Z" fill="white"/>
<path d="M276.502 185.729L276.563 197.14L116.303 184.716L116.242 173.305C116.221 170.712 118.365 168.779 121.036 169.002L271.633 180.677C274.294 180.867 276.484 183.133 276.502 185.729Z" fill="black"/>
<path d="M129.097 179.46C129.95 178.312 129.622 176.624 128.364 175.691C127.106 174.757 125.396 174.93 124.544 176.078C123.691 177.226 124.019 178.913 125.277 179.847C126.535 180.781 128.245 180.608 129.097 179.46Z" fill="#6EDBFF"/>
<path d="M136.739 180.073C137.591 178.925 137.263 177.238 136.005 176.304C134.748 175.37 133.037 175.543 132.185 176.691C131.332 177.839 131.661 179.527 132.918 180.461C134.176 181.395 135.886 181.221 136.739 180.073Z" fill="#6EDBFF"/>
<path d="M144.374 180.559C145.231 179.415 144.911 177.726 143.658 176.786C142.405 175.846 140.693 176.012 139.836 177.156C138.978 178.299 139.298 179.988 140.551 180.928C141.804 181.868 143.516 181.703 144.374 180.559Z" fill="#6EDBFF"/>
<path d="M102.1 209.873C102.1 209.873 106.296 209.131 112.172 208.08C125.378 205.718 147.086 201.802 148.746 201.286C150.406 200.769 154.842 201.512 154.963 205.151C155.024 206.747 154.268 208.898 152.095 211.738C146.523 219.074 122.363 224.126 112.233 227.515C110.364 228.177 108.563 229.018 106.855 230.025C106.855 230.025 105.636 253.948 92.1789 261.191C86.2017 264.418 78.5535 263.701 74.3189 262.905C73.2313 262.709 72.1542 262.459 71.0918 262.155" fill="#6EDBFF"/>
<path d="M152.124 211.75C146.552 219.086 124.077 228.384 113.947 233.501C111.348 234.799 109 240.001 109 240.001C109 240.001 101 257.001 92.2077 261.203C86.2448 264.448 78.5823 263.713 74.3477 262.917C74.3477 262.917 91.0662 259.643 96.9998 250.001C101 243.501 100.761 236.271 106.845 230.573C109.646 227.949 111.906 226.227 115.085 225.217C127.864 221.201 146.577 213.274 154.999 205.152C155.042 206.748 154.286 208.899 152.124 211.75Z" fill="white"/>
<path d="M102.1 209.873C102.1 209.873 106.296 209.131 112.172 208.08C125.378 205.718 147.086 201.802 148.746 201.286C150.406 200.769 154.842 201.512 154.963 205.151C155.024 206.747 154.268 208.898 152.095 211.738C146.523 219.074 121.871 228.536 113 234.499C106.456 238.895 105.636 253.959 92.1789 261.202C86.2017 264.429 78.5535 263.712 74.3189 262.916C73.2313 262.72 72.1542 262.47 71.0918 262.166" stroke="black" stroke-width="1.2" stroke-linecap="round" stroke-linejoin="round"/>
<path d="M162.045 165.494L88.6653 148.642C87.6866 148.447 86.8149 147.897 86.2188 147.097C85.6227 146.297 85.3445 145.304 85.4382 144.31L87.9948 88.7616C88.0282 88.2914 88.1601 87.8334 88.382 87.4174C88.6038 87.0014 88.9107 86.6366 89.2826 86.3469C89.6545 86.0571 90.0832 85.8488 90.5408 85.7354C90.9985 85.622 91.4748 85.6061 91.939 85.6888C91.939 85.6888 166.879 100.175 166.689 102.222L165.972 162.439C165.936 162.906 165.802 163.36 165.581 163.773C165.359 164.185 165.053 164.547 164.684 164.835C164.314 165.122 163.888 165.329 163.434 165.443C162.98 165.557 162.507 165.574 162.045 165.494Z" fill="black" stroke="black" stroke-width="1.2" stroke-miterlimit="10" stroke-linejoin="round"/>
<path d="M159.951 161.977L83.2869 148.528C82.308 148.332 81.4362 147.781 80.8401 146.98C80.244 146.18 79.966 145.186 80.0599 144.193L85.8901 85.2232C85.923 84.7527 86.0545 84.2944 86.2762 83.8782C86.4979 83.4619 86.8048 83.0969 87.1768 82.8071C87.5489 82.5172 87.9778 82.3089 88.4356 82.1958C88.8935 82.0826 89.3701 82.0671 89.8343 82.1503L166.492 95.6001C167.471 95.7938 168.343 96.3441 168.939 97.1444C169.535 97.9448 169.813 98.938 169.719 99.9315L163.896 158.901C163.863 159.371 163.731 159.83 163.509 160.246C163.288 160.663 162.981 161.028 162.609 161.318C162.237 161.608 161.808 161.817 161.35 161.93C160.893 162.044 160.416 162.06 159.951 161.977V161.977Z" fill="white"/>
<path d="M93.5703 90.2988C94.4303 89.7846 94.6768 88.614 94.1209 87.6843C93.565 86.7547 92.4172 86.4179 91.5572 86.9321C90.6972 87.4464 90.4507 88.6169 91.0066 89.5466C91.5625 90.4763 92.7103 90.8131 93.5703 90.2988Z" fill="#6EDBFF"/>
<path d="M98.6978 91.2227C99.5578 90.7084 99.8043 89.5379 99.2484 88.6082C98.6924 87.6785 97.5446 87.3417 96.6846 87.856C95.8246 88.3702 95.5781 89.5408 96.134 90.4705C96.69 91.4001 97.8378 91.7369 98.6978 91.2227Z" fill="#6EDBFF"/>
<path d="M103.825 92.1465C104.685 91.6322 104.932 90.4617 104.376 89.532C103.82 88.6023 102.672 88.2655 101.812 88.7798C100.952 89.2941 100.706 90.4646 101.261 91.3943C101.817 92.324 102.965 92.6607 103.825 92.1465Z" fill="#6EDBFF"/>
<path d="M130.897 81.8711L117.357 91.7746L121.266 98.7702L136.637 83.9472L130.897 81.8711Z" fill="black" stroke="black" stroke-width="1.2" stroke-miterlimit="10" stroke-linejoin="round"/>
<path d="M130.897 81.8711L117.357 91.7746L121.452 96.5292L136.637 83.9472L130.897 81.8711Z" fill="#6EDBFF" stroke="black" stroke-width="1.2" stroke-miterlimit="10" stroke-linejoin="round"/>
<path d="M242.665 123.665L179.758 120.872V93.75L242.665 96.5432V123.665Z" fill="black"/>
<path d="M239.47 118.2L175.538 115.504V89.3145L239.47 92.0109V118.2Z" fill="white"/>
<path d="M195.255 110.56L180.619 109.943V95.3066L195.255 95.9234V110.56Z" fill="#6EDBFF"/>
<path d="M214.819 111.384L200.186 110.767V96.1309L214.819 96.7476V111.384Z" fill="white" stroke="#6EDBFF" stroke-width="1.2" stroke-linecap="round" stroke-linejoin="round"/>
<path d="M234.386 112.208L219.749 111.592V96.9551L234.386 97.5754V112.208Z" fill="black"/>
<path d="M210.103 98.9266L195.868 97.5353C195.627 97.5121 195.403 97.3997 195.239 97.22C195.076 97.0403 194.986 96.8063 194.986 96.5636V88.8402C194.986 88.7035 195.015 88.5683 195.07 88.4433C195.125 88.3184 195.206 88.2065 195.308 88.1148C195.409 88.0232 195.529 87.9539 195.659 87.9115C195.789 87.8691 195.926 87.8544 196.062 87.8685L210.297 89.2597C210.538 89.2837 210.762 89.3963 210.925 89.5758C211.088 89.7553 211.178 89.989 211.179 90.2314V97.9584C211.179 98.0948 211.15 98.2296 211.094 98.3541C211.039 98.4787 210.958 98.5901 210.856 98.6814C210.755 98.7726 210.635 98.8416 210.506 98.8838C210.376 98.926 210.239 98.9406 210.103 98.9266V98.9266Z" fill="black" stroke="black" stroke-width="1.2" stroke-linecap="round" stroke-linejoin="round"/>
<path d="M206.963 98.9345L204.811 86.0764C204.745 85.721 204.769 85.3544 204.884 85.0113C204.998 84.6681 205.197 84.3597 205.464 84.1151C206.181 83.4804 207.002 82.5696 206.64 82.0569C206.048 81.2107 203.771 80.6549 203.087 80.5904C202.402 80.5258 200.128 80.6298 199.533 81.3613C199.175 81.8059 200.006 82.878 200.713 83.6489C200.973 83.9248 201.167 84.2566 201.28 84.619C201.392 84.9813 201.42 85.3645 201.362 85.7394L199.21 98.1743" stroke="white" stroke-width="1.2" stroke-linecap="round" stroke-linejoin="round"/>
<path d="M277.16 193L277.6 247" stroke="#6EDBFF" stroke-width="1.2"/>
<path d="M130.746 137.617L127.636 107.504L136.911 106.546C145.905 105.617 152.61 111.214 153.514 119.967C154.431 128.841 149.015 135.73 140.021 136.659L130.746 137.617ZM137.338 110.682L132.56 111.175L134.816 133.017L139.594 132.524C145.817 131.881 149.505 127.117 148.821 120.493C148.141 113.908 143.562 110.039 137.338 110.682Z" fill="#6EDBFF"/>
<path d="M97.9195 141.008L106.373 109.7L111.271 109.194L125.905 138.117L121.127 138.611L116.506 129.227L105.143 130.401L102.497 140.535L97.9195 141.008ZM106.218 126.273L114.609 125.406L109.228 114.559L106.218 126.273Z" fill="#6EDBFF"/>
<path d="M291.864 163.025L304.518 133.795L313.521 137.692C322.251 141.472 325.521 150.06 321.843 158.556C318.114 167.17 309.597 170.702 300.867 166.923L291.864 163.025ZM311.783 141.707L307.145 139.699L297.967 160.901L302.605 162.908C308.646 165.523 314.482 163.052 317.266 156.621C320.033 150.23 317.824 144.322 311.783 141.707Z" fill="#6EDBFF"/>
<path d="M260 149.232L283.878 124.861L288.633 126.919L287.165 160.992L282.527 158.984L283.119 147.995L272.089 143.22L264.443 151.156L260 149.232ZM275.202 139.986L283.347 143.512L283.996 130.789L275.202 139.986Z" fill="#6EDBFF"/>
<path d="M206.425 267.736L234.623 222.281L249.35 231.417C262.986 239.876 266.099 255.152 258.054 268.122C249.895 281.273 234.789 285.331 221.153 276.871L206.425 267.736ZM244.613 239.053L238.188 235.068L219.465 265.25L225.89 269.235C234.375 274.499 243.77 271.935 249.41 262.844C255.012 253.813 253.097 244.317 244.613 239.053Z" fill="#6EDBFF"/>
<path d="M156 236.454L201.591 201.79L210.561 207.354L199.697 263.561L190.909 258.11L194.398 241.391L177.914 231.164L164.424 241.68L156 236.454ZM185.13 225.485L196.22 232.365L200.067 213.853L185.13 225.485Z" fill="#6EDBFF"/>
</svg>
